<svg width="38" height="42" viewBox="0 0 38 42" fill="none" xmlns="http://www.w3.org/2000/svg">
<path d="M4.62269 40.4193H31.5602C36.0982 42.0111 31.7588 19.653 27.8814 9.68051C24.3427 8.10709 11.1475 8.1059 7.67827 9.68051C7.06606 12.1736 4.13292 19.6344 2.17382 29.397C0.214724 39.1596 2.99011 40.8129 4.62269 40.4193Z" stroke="#54C4C3" stroke-width="3"/>
<path d="M27.3123 8.45318L29.9999 1.5M29.9999 1.5H25.1628C25.0638 1.5 24.9741 1.55842 24.9341 1.64897L22.2353 7.75786M29.9999 1.5C39.5 12 35.5 30.5 33.5 36M16.5942 7.75786L18.4999 1.5M18.4999 1.5H13.6856C13.5754 1.5 13.4781 1.57222 13.4463 1.67777L11.4014 8.45318M18.4999 1.5C19.3333 2.50524 20.9 5.16415 20.5 7.75786" stroke="#54C4C3" stroke-width="3"/>
<path d="M6.30762 23H21.6924C23.4642 23 25 24.511 25 26.5V31.5C25 33.489 23.4642 35 21.6924 35H6.30762C4.53577 35 3 33.489 3 31.5V26.5C3 24.511 4.53577 23 6.30762 23Z" stroke="#54C4C3" stroke-width="3"/>
<path d="M6.5 23H19.5C21.433 23 23 24.567 23 26.5V31.5C23 33.433 21.433 35 19.5 35H6.5C4.567 35 3 33.433 3 31.5V26.5C3 24.567 4.567 23 6.5 23Z" stroke="#54C4C3" stroke-width="3"/>
<path d="M21 16.5H9.5" stroke="#54C4C3" stroke-width="3"/>
</svg>
