<svg width="41" height="47" viewBox="0 0 41 47" fill="none" xmlns="http://www.w3.org/2000/svg">
<path d="M10.1153 33.185L16.4916 24.5386C16.6304 24.3504 16.8812 24.2835 17.0953 24.3777L23.3727 27.1391C23.6383 27.2559 23.9473 27.1229 24.0449 26.8496L29.6438 11.1788" stroke="#54C4C3" stroke-width="4" stroke-linecap="round"/>
<path d="M6.82546 3.62263L34.052 5.36091C34.3276 5.37851 34.5374 5.61661 34.5198 5.89216L32.385 39.3111C32.3672 39.5864 32.1301 39.7954 31.8548 39.7779L4.62722 38.0396C4.35185 38.0218 4.14286 37.7838 4.16042 37.5084L6.29421 4.08943C6.31202 3.81405 6.55001 3.60504 6.82546 3.62263Z" stroke="#54C4C3" stroke-width="3"/>
<path d="M35.2144 5.38422C35.9537 6.30516 37.3749 8.94187 38.6648 10.297" stroke="#54C4C3" stroke-width="3" stroke-linecap="round"/>
<path d="M32.4644 40.0773C33.2513 40.9276 35.1909 43.4349 36.9097 45.2155" stroke="#54C4C3" stroke-width="3" stroke-linecap="round"/>
<path d="M38.8266 10.5589L37.2766 44.3055C37.2511 44.8609 36.7776 45.2888 36.2225 45.2581L10.5047 43.8361C8.96177 43.6609 3.21078 43.5208 4.29172 35.3152" stroke="#54C4C3" stroke-width="3" stroke-linecap="round"/>
</svg>
