<svg width="103" height="32" viewBox="0 0 103 32" fill="none" xmlns="http://www.w3.org/2000/svg">
<path d="M0 20.4442C0 19.073 0.777549 18.2931 2.13069 18.2931H11.9409V21.6217H5.23583C4.6552 21.6217 4.38255 21.897 4.38255 22.4832V23.5026H10.295V26.8312H4.38255V32H0V20.4442Z" fill="white"/>
<path d="M15.2379 31.9898C13.8798 31.9898 13.1073 31.2048 13.1073 29.8387V18.2931H17.4898V27.7233C17.4898 28.3095 17.7625 28.5847 18.3431 28.5847H25.0482V31.9898H15.2379Z" fill="white"/>
<path d="M26.0176 31.9898V18.2931H30.4001V31.9898H26.0176Z" fill="white"/>
<path d="M39.3571 21.6982C37.2264 21.6982 36.4489 22.4016 36.4489 25.144C36.4489 27.8864 37.2264 28.5898 39.3571 28.5898H40.2861C40.8668 28.5898 41.1394 28.3146 41.1394 27.7284V24.7515H45.522V29.8387C45.522 31.2099 44.7444 31.9898 43.3913 31.9898H37.8878C33.4296 31.9898 31.9552 29.8387 31.9552 25.1389C31.9552 20.4391 33.4296 18.288 37.8878 18.288H45.214V21.6931H39.3622L39.3571 21.6982Z" fill="white"/>
<path d="M60.7549 31.9898H56.3723V26.5509H51.4495V31.9898H47.067V18.2931H51.4495V23.1458H56.3723V18.2931H60.7549V31.9898Z" fill="white"/>
<path d="M66.5764 31.9898V21.6982H61.7293V18.2931H75.8009V21.6982H70.9539V31.9898H66.5713H66.5764Z" fill="white"/>
<path d="M81.2892 31.9898V18.2931H85.6718V31.9898H81.2892Z" fill="#54C4C3"/>
<path d="M102.147 25.144C102.147 26.5509 101.914 27.7284 101.47 28.6663V28.7428L103 28.5847V31.9898H94.6843C89.0647 31.9898 87.2218 31.0111 87.2218 25.1389C87.2218 19.2667 89.0647 18.1351 94.6843 18.1351C100.304 18.1351 102.147 19.2718 102.147 25.1389V25.144ZM94.6843 28.5847C97.0119 28.5847 97.648 27.6825 97.648 25.1389C97.648 22.5953 97.0068 21.5401 94.6843 21.5401C92.3617 21.5401 91.7205 22.5953 91.7205 25.1389C91.7205 27.6825 92.3617 28.5847 94.6843 28.5847Z" fill="#54C4C3"/>
<path d="M72.1454 9.077C20.9938 -6.87786 0.903774 17.2532 0.903774 17.2532C21.0746 -12.4187 77.5529 5.18258 77.5529 5.18258C77.5529 5.18258 74.1953 6.70161 74.68 9.71927L72.1454 9.077Z" fill="white"/>
<path fill-rule="evenodd" clip-rule="evenodd" d="M80.4897 5.81525C81.9592 5.70937 83.6795 6.01794 85.3513 6.68041C87.023 7.34286 88.4917 8.29775 89.4976 9.38442C90.4046 10.3645 91.3822 11.9834 90.7125 13.7063C90.0427 15.429 88.2356 15.9439 86.9104 16.0394C85.4409 16.1453 83.7206 15.8367 82.0488 15.1743C80.3771 14.5118 78.9084 13.5569 77.9026 12.4702C76.9955 11.4902 76.018 9.87164 76.6876 8.1489L76.7537 7.9911C77.4699 6.39442 79.2059 5.90778 80.4897 5.81525ZM84.7764 8.37739C82.3829 7.38484 79.9709 7.73887 79.3892 9.16838C78.8075 10.598 80.2765 12.5618 82.67 13.5544C85.0637 14.547 87.4757 14.1926 88.0573 12.7629C88.6389 11.3333 87.1701 9.36997 84.7764 8.37739Z" fill="#54C4C3"/>
</svg>
