<svg width="35" height="42" viewBox="0 0 35 42" fill="none" xmlns="http://www.w3.org/2000/svg">
<path d="M4.3595 10.914C10.7422 0.743998 21.7994 -2.98513 29.0568 2.58489C36.3142 8.15548 37.0236 20.9166 30.6408 31.0868C24.2579 41.257 13.1999 44.9855 5.94251 39.415C-1.31464 33.8443 -2.02322 21.0841 4.3595 10.914ZM25.5353 4.74016C20.0966 0.565819 11.557 3.76355 6.46204 11.8818C1.36731 19.9999 1.64573 29.965 7.08411 34.1396C12.5227 38.3141 21.0623 35.1172 26.1574 26.999C31.2524 18.8806 30.974 8.91474 25.5353 4.74016Z" fill="#54C4C3"/>
<path d="M12.6748 12.8844L22.5169 12.8899L19.2432 25.4417L8.85414 25.436L12.6748 12.8844Z" fill="#54C4C3"/>
</svg>
