<svg width="45" height="44" viewBox="0 0 45 44" fill="none" xmlns="http://www.w3.org/2000/svg">
<path d="M17.5604 6.95875C10.7168 10.8019 8.46076 19.7795 12.5214 27.0108C16.5823 34.2422 25.4226 36.9894 32.2663 33.1463C39.1101 29.3031 41.3657 20.3248 37.3049 13.0934C33.2439 5.86218 24.4041 3.11563 17.5604 6.95875ZM20.0115 11.3235C24.5739 8.76142 30.467 10.5922 33.1743 15.413C35.8815 20.2339 34.3777 26.2195 29.8153 28.7816C25.2528 31.3436 19.3592 29.5121 16.652 24.6912C13.945 19.8704 15.4492 13.8856 20.0115 11.3235Z" fill="#54C4C3"/>
<path d="M36.0614 12.5566C32.8494 6.53342 25.8572 4.24535 20.4442 7.44629C19.5351 7.9839 18.731 8.64477 18.0331 9.39648C18.1668 9.30907 18.3028 9.22351 18.4413 9.1416C23.8542 5.94083 30.8465 8.22878 34.0584 14.252C36.7309 19.2636 35.9416 25.2804 32.4842 29.0049C37.5766 25.6758 39.191 18.4258 36.0614 12.5566ZM20.3797 12.7773C16.771 14.9115 15.5812 19.8974 17.7225 23.9131C19.8639 27.9287 24.5259 29.4535 28.1346 27.3193C28.8747 26.8815 29.5112 26.3224 30.0399 25.6777C26.4449 27.7288 21.8478 26.1979 19.7254 22.2178C18.0227 19.0246 18.4291 15.2201 20.4803 12.7217C20.4471 12.7406 20.4128 12.7578 20.3797 12.7773Z" fill="#54C4C3"/>
<path d="M15.6581 32.3573L11.8205 28L2.07352 37.5515C0.928347 38.6738 0.859065 40.5589 1.91878 41.7621V41.7621C2.97849 42.9654 4.7659 43.0311 5.91108 41.9089L15.6581 32.3573Z" fill="#54C4C3"/>
</svg>
